<svg width="20" height="20" viewBox="0 0 20 20" fill="none" xmlns="http://www.w3.org/2000/svg" xmlns:xlink="http://www.w3.org/1999/xlink">
<path d="M5.68917 5.14588C5.53916 5.38331 5.33902 5.58503 5.10278 5.73691C4.86655 5.88879 4.59994 5.98713 4.32167 6.02505C4.005 6.07005 3.69083 6.11838 3.37667 6.17088C2.49917 6.31672 1.875 7.08922 1.875 7.97838V15C1.875 15.4973 2.07254 15.9742 2.42417 16.3259C2.77581 16.6775 3.25272 16.875 3.75 16.875H16.25C16.7473 16.875 17.2242 16.6775 17.5758 16.3259C17.9275 15.9742 18.125 15.4973 18.125 15V7.97838C18.125 7.08922 17.5 6.31672 16.6233 6.17088C16.3089 6.1185 15.9939 6.06988 15.6783 6.02505C15.4002 5.98702 15.1338 5.88862 14.8977 5.73675C14.6616 5.58488 14.4616 5.38321 14.3117 5.14588L13.6267 4.04922C13.4728 3.7993 13.261 3.59013 13.0092 3.43941C12.7574 3.2887 12.473 3.20088 12.18 3.18338C10.7277 3.10538 9.27229 3.10538 7.82 3.18338C7.52705 3.20088 7.24262 3.2887 6.9908 3.43941C6.73898 3.59013 6.52718 3.7993 6.37333 4.04922L5.68917 5.14588Z" stroke="#6695F1" stroke-width="1.5" stroke-linecap="round" stroke-linejoin="round"/>
<path d="M13.75 10.625C13.75 11.6196 13.3549 12.5734 12.6516 13.2766C11.9484 13.9799 10.9946 14.375 10 14.375C9.00544 14.375 8.05161 13.9799 7.34835 13.2766C6.64509 12.5734 6.25 11.6196 6.25 10.625C6.25 9.63044 6.64509 8.67661 7.34835 7.97335C8.05161 7.27009 9.00544 6.875 10 6.875C10.9946 6.875 11.9484 7.27009 12.6516 7.97335C13.3549 8.67661 13.75 9.63044 13.75 10.625ZM15.625 8.75H15.6317V8.75667H15.625V8.75Z" stroke="#6695F1" stroke-width="1.5" stroke-linecap="round" stroke-linejoin="round"/>
</svg>
