
    <svg
      width="12"
      height="11"
      viewBox="0 0 12 11"
      fill="none"
      xmlns="http://www.w3.org/2000/svg"
    >
      <path
        d="M2.27991 0.219999C2.13773 0.0875188 1.94969 0.0153959 1.75539 0.0188241C1.56109 0.0222523 1.3757 0.100964 1.23829 0.238377C1.10087 0.37579 1.02216 0.561175 1.01873 0.755476C1.01531 0.949778 1.08743 1.13782 1.21991 1.28L4.93991 5L1.21991 8.72C1.14622 8.78866 1.08712 8.87146 1.04613 8.96346C1.00514 9.05546 0.983095 9.15477 0.981318 9.25548C0.979541 9.35618 0.998066 9.45621 1.03579 9.5496C1.07351 9.64299 1.12965 9.72782 1.20087 9.79904C1.27209 9.87026 1.35692 9.9264 1.45031 9.96412C1.5437 10.0018 1.64373 10.0204 1.74443 10.0186C1.84513 10.0168 1.94445 9.99477 2.03645 9.95378C2.12845 9.91279 2.21125 9.85369 2.27991 9.78L5.99991 6.06L9.71991 9.78C9.78857 9.85369 9.87137 9.91279 9.96337 9.95378C10.0554 9.99477 10.1547 10.0168 10.2554 10.0186C10.3561 10.0204 10.4561 10.0018 10.5495 9.96412C10.6429 9.9264 10.7277 9.87026 10.7989 9.79904C10.8702 9.72782 10.9263 9.64299 10.964 9.5496C11.0018 9.45621 11.0203 9.35618 11.0185 9.25548C11.0167 9.15477 10.9947 9.05546 10.9537 8.96346C10.9127 8.87146 10.8536 8.78866 10.7799 8.72L7.05991 5L10.7799 1.28C10.9124 1.13782 10.9845 0.949778 10.9811 0.755476C10.9777 0.561175 10.8989 0.37579 10.7615 0.238377C10.6241 0.100964 10.4387 0.0222523 10.2444 0.0188241C10.0501 0.0153959 9.86208 0.0875188 9.71991 0.219999L5.99991 3.94L2.27991 0.219999Z"
        fill="#999999"
      />
    </svg>

