<svg width="124" height="112" viewBox="0 0 124 112" fill="none" xmlns="http://www.w3.org/2000/svg">
<g clip-path="url(#clip0_641_40)">
<path d="M63.5046 0.244349L59.4698 1.29147L9.761 14.1923L5.72626 15.2394C3.76784 15.75 2.09066 17.0216 1.06267 18.7752C0.0346839 20.5287 -0.260162 22.621 0.242821 24.5931L17.7384 92.8701C18.2457 94.8411 19.5092 96.529 21.2517 97.5635C22.9941 98.5981 25.0732 98.8948 27.0327 98.3886L27.0431 98.3859L84.8006 83.3963L84.811 83.3936C86.7694 82.883 88.4466 81.6114 89.4746 79.8578C90.5026 78.1043 90.7975 76.0119 90.2945 74.0399L72.7989 5.76284C72.2916 3.79192 71.028 2.10402 69.2856 1.06945C67.5432 0.0348926 65.4641 -0.261843 63.5046 0.244349Z" fill="#F2F2F2"/>
<path d="M64.0529 2.3848L59.274 3.62504L11.0533 16.1396L6.27447 17.3798C4.87983 17.7435 3.68547 18.649 2.95341 19.8977C2.22135 21.1465 2.01138 22.6365 2.36956 24.0409L19.8651 92.3179C20.2264 93.7214 21.1262 94.9234 22.367 95.6601C23.6078 96.3969 25.0884 96.6082 26.4838 96.2477L26.4943 96.245L84.2517 81.2554L84.2622 81.2526C85.6568 80.889 86.8512 79.9835 87.5832 78.7347C88.3153 77.486 88.5252 75.996 88.167 74.5917L70.6715 6.31465C70.3102 4.91112 69.4104 3.70914 68.1696 2.9724C66.9288 2.23566 65.4483 2.02434 64.0529 2.3848Z" fill="white"/>
<path d="M60.4443 24.4948L31.2262 32.0776C30.8999 32.1623 30.5535 32.1131 30.2632 31.9408C29.9729 31.7684 29.7626 31.4871 29.6784 31.1587C29.5943 30.8302 29.6432 30.4816 29.8145 30.1895C29.9857 29.8974 30.2652 29.6857 30.5916 29.601L59.8097 22.0181C60.1359 21.9338 60.4821 21.9832 60.7721 22.1556C61.0621 22.328 61.2722 22.6092 61.3564 22.9374C61.4405 23.2656 61.3916 23.614 61.2206 23.9061C61.0496 24.1981 60.7704 24.4098 60.4443 24.4948Z" fill="#F2F2F2"/>
<path d="M66.5912 27.3567L32.2975 36.2569C31.9712 36.3416 31.6248 36.2923 31.3345 36.12C31.0442 35.9477 30.8339 35.6663 30.7497 35.3379C30.6656 35.0095 30.7145 34.6609 30.8858 34.3688C31.057 34.0766 31.3365 33.865 31.6629 33.7803L65.9566 24.8801C66.2829 24.7954 66.6293 24.8447 66.9196 25.017C67.2099 25.1893 67.4202 25.4707 67.5044 25.7991C67.5885 26.1275 67.5396 26.4761 67.3683 26.7682C67.1971 27.0604 66.9176 27.272 66.5912 27.3567Z" fill="#F2F2F2"/>
<path d="M65.2436 43.2242L36.0255 50.8071C35.8639 50.849 35.6957 50.8585 35.5305 50.835C35.3653 50.8115 35.2062 50.7555 35.0625 50.6702C34.9188 50.5848 34.7932 50.4718 34.6929 50.3377C34.5925 50.2035 34.5194 50.0507 34.4778 49.8881C34.4361 49.7255 34.4267 49.5562 34.45 49.3899C34.4733 49.2236 34.529 49.0636 34.6138 48.9189C34.6986 48.7743 34.8108 48.6479 34.9442 48.5469C35.0775 48.4459 35.2293 48.3724 35.3909 48.3304L64.609 40.7475C64.7706 40.7056 64.9388 40.6961 65.104 40.7196C65.2693 40.7431 65.4283 40.7991 65.572 40.8844C65.7157 40.9698 65.8413 41.0828 65.9417 41.2169C66.042 41.3511 66.1151 41.5039 66.1568 41.6665C66.1984 41.8291 66.2079 41.9984 66.1845 42.1647C66.1612 42.331 66.1055 42.491 66.0207 42.6357C65.9359 42.7803 65.8237 42.9067 65.6903 43.0077C65.557 43.1087 65.4052 43.1822 65.2436 43.2242Z" fill="#F2F2F2"/>
<path d="M71.3905 46.0862L37.0968 54.9864C36.9352 55.0283 36.767 55.0378 36.6018 55.0143C36.4365 54.9908 36.2775 54.9348 36.1338 54.8495C35.9901 54.7642 35.8645 54.6512 35.7641 54.517C35.6638 54.3828 35.5907 54.23 35.549 54.0674C35.5074 53.9048 35.4979 53.7355 35.5213 53.5692C35.5446 53.4029 35.6003 53.2429 35.6851 53.0983C35.7699 52.9536 35.8821 52.8272 36.0155 52.7262C36.1488 52.6252 36.3006 52.5517 36.4622 52.5098L70.7559 43.6096C71.0822 43.5249 71.4286 43.5742 71.7189 43.7465C72.0092 43.9188 72.2195 44.2002 72.3037 44.5286C72.3878 44.857 72.3389 45.2056 72.1677 45.4977C71.9964 45.7899 71.7169 46.0015 71.3905 46.0862Z" fill="#F2F2F2"/>
<path d="M70.0431 61.9537L40.825 69.5365C40.4987 69.621 40.1525 69.5716 39.8624 69.3992C39.5724 69.2269 39.3622 68.9456 39.2781 68.6174C39.1939 68.2891 39.2428 67.9406 39.4138 67.6486C39.5849 67.3565 39.8642 67.1448 40.1903 67.0599L69.4084 59.477C69.7348 59.3923 70.0812 59.4416 70.3714 59.6139C70.6617 59.7863 70.872 60.0676 70.9562 60.396C71.0404 60.7244 70.9914 61.073 70.8202 61.3652C70.6489 61.6573 70.3694 61.869 70.0431 61.9537Z" fill="#F2F2F2"/>
<path d="M76.1895 64.8157L41.8958 73.7159C41.7341 73.758 41.5658 73.7676 41.4005 73.7442C41.2351 73.7208 41.076 73.6649 40.9321 73.5796C40.7883 73.4942 40.6626 73.3812 40.5622 73.247C40.4617 73.1127 40.3886 72.9599 40.3469 72.7972C40.3052 72.6345 40.2958 72.4651 40.3192 72.2987C40.3426 72.1323 40.3983 71.9722 40.4832 71.8275C40.5681 71.6829 40.6805 71.5564 40.814 71.4555C40.9475 71.3545 41.0994 71.2811 41.2611 71.2392L75.5549 62.3391C75.8812 62.2544 76.2276 62.3037 76.5179 62.476C76.8081 62.6483 77.0185 62.9297 77.1026 63.2581C77.1868 63.5865 77.1379 63.9351 76.9666 64.2272C76.7954 64.5193 76.5158 64.731 76.1895 64.8157Z" fill="#F2F2F2"/>
<path d="M26.2385 39.8527L15.8985 42.5362C15.742 42.5766 15.576 42.553 15.4369 42.4703C15.2978 42.3877 15.1969 42.253 15.1564 42.0956L12.7828 32.8327C12.7427 32.6753 12.7662 32.5082 12.8483 32.3682C12.9304 32.2282 13.0643 32.1266 13.2207 32.0859L23.5607 29.4023C23.7172 29.3619 23.8832 29.3856 24.0223 29.4682C24.1614 29.5508 24.2623 29.6856 24.3028 29.843L26.6764 39.1058C26.7166 39.2633 26.693 39.4304 26.6109 39.5704C26.5288 39.7104 26.3949 39.8119 26.2385 39.8527Z" fill="#E6E6E6"/>
<path d="M31.0378 58.5822L20.6978 61.2657C20.5414 61.3061 20.3754 61.2824 20.2362 61.1998C20.0971 61.1172 19.9962 60.9824 19.9557 60.8251L17.5821 51.5622C17.542 51.4048 17.5655 51.2377 17.6476 51.0977C17.7297 50.9576 17.8636 50.8561 18.02 50.8153L28.36 48.1318C28.5165 48.0914 28.6825 48.1151 28.8216 48.1977C28.9608 48.2803 29.0616 48.4151 29.1022 48.5725L31.4757 57.8353C31.5159 57.9928 31.4923 58.1599 31.4102 58.2999C31.3281 58.4399 31.1942 58.5414 31.0378 58.5822Z" fill="#E6E6E6"/>
<path d="M35.8372 77.3117L25.4972 79.9952C25.3407 80.0356 25.1747 80.0119 25.0355 79.9293C24.8964 79.8467 24.7955 79.7119 24.755 79.5546L22.3815 70.2917C22.3413 70.1343 22.3648 69.9672 22.4469 69.8272C22.529 69.6871 22.6629 69.5856 22.8193 69.5448L33.1593 66.8613C33.3158 66.8209 33.4818 66.8446 33.6209 66.9272C33.7601 67.0098 33.861 67.1446 33.9015 67.302L36.275 76.5648C36.3152 76.7223 36.2916 76.8894 36.2096 77.0294C36.1275 77.1694 35.9935 77.2709 35.8372 77.3117Z" fill="#E6E6E6"/>
<path d="M103.802 17.5515H44.1331C42.11 17.5538 40.1704 18.3636 38.7399 19.8033C37.3094 21.243 36.5047 23.1949 36.5024 25.2309V95.7417C36.5047 97.7777 37.3094 99.7296 38.7399 101.169C40.1704 102.609 42.11 103.419 44.1331 103.421H103.802C105.825 103.419 107.764 102.609 109.195 101.169C110.625 99.7296 111.43 97.7777 111.432 95.7417V25.2309C111.43 23.1949 110.625 21.243 109.195 19.8033C107.764 18.3636 105.825 17.5538 103.802 17.5515Z" fill="#E6E6E6"/>
<path d="M103.802 19.7622H44.1332C42.6925 19.7638 41.3113 20.3405 40.2926 21.3657C39.2739 22.391 38.7008 23.781 38.6992 25.2309V95.7416C38.7008 97.1915 39.2739 98.5815 40.2926 99.6067C41.3113 100.632 42.6925 101.209 44.1332 101.21H103.802C105.243 101.209 106.624 100.632 107.642 99.6067C108.661 98.5815 109.234 97.1915 109.236 95.7416V25.2309C109.234 23.781 108.661 22.391 107.642 21.3658C106.624 20.3405 105.243 19.7638 103.802 19.7622Z" fill="white"/>
<path d="M110.071 112C117.764 112 124 105.724 124 97.9815C124 90.2394 117.764 83.9631 110.071 83.9631C102.378 83.9631 96.1411 90.2394 96.1411 97.9815C96.1411 105.724 102.378 112 110.071 112Z" fill="#2E6EEB"/>
<path d="M116.733 96.1531H111.887V91.2771C111.887 90.7922 111.696 90.3271 111.355 89.9842C111.015 89.6413 110.552 89.4486 110.071 89.4486C109.589 89.4486 109.127 89.6413 108.786 89.9842C108.445 90.3271 108.254 90.7922 108.254 91.2771V96.1531H103.409C102.927 96.1531 102.465 96.3457 102.124 96.6886C101.783 97.0315 101.592 97.4966 101.592 97.9816C101.592 98.4665 101.783 98.9316 102.124 99.2745C102.465 99.6174 102.927 99.81 103.409 99.81H108.254V104.686C108.254 105.171 108.445 105.636 108.786 105.979C109.127 106.322 109.589 106.514 110.071 106.514C110.552 106.514 111.015 106.322 111.355 105.979C111.696 105.636 111.887 105.171 111.887 104.686V99.81H116.733C117.214 99.81 117.677 99.6174 118.017 99.2745C118.358 98.9316 118.549 98.4665 118.549 97.9816C118.549 97.4966 118.358 97.0315 118.017 96.6886C117.677 96.3457 117.214 96.1531 116.733 96.1531Z" fill="white"/>
<path d="M94.8216 58.5077H64.6476C64.4806 58.5079 64.3152 58.475 64.1609 58.4108C64.0066 58.3466 63.8663 58.2524 63.7482 58.1337C63.63 58.0149 63.5363 57.8739 63.4724 57.7186C63.4084 57.5634 63.3755 57.397 63.3755 57.2289C63.3755 57.0608 63.4084 56.8944 63.4724 56.7392C63.5363 56.5839 63.63 56.4429 63.7482 56.3241C63.8663 56.2054 64.0066 56.1112 64.1609 56.047C64.3152 55.9828 64.4806 55.9499 64.6476 55.9501H94.8216C95.1584 55.9505 95.4812 56.0854 95.7192 56.3251C95.9572 56.5649 96.0909 56.89 96.0909 57.2289C96.0909 57.5678 95.9572 57.8929 95.7192 58.1327C95.4812 58.3724 95.1584 58.5073 94.8216 58.5077Z" fill="#E6E6E6"/>
<path d="M100.063 62.8238H64.6476C64.4806 62.8239 64.3152 62.791 64.1609 62.7268C64.0066 62.6626 63.8663 62.5685 63.7482 62.4497C63.63 62.3309 63.5363 62.1899 63.4724 62.0347C63.4084 61.8794 63.3755 61.713 63.3755 61.5449C63.3755 61.3769 63.4084 61.2105 63.4724 61.0552C63.5363 60.9 63.63 60.7589 63.7482 60.6402C63.8663 60.5214 64.0066 60.4272 64.1609 60.363C64.3152 60.2989 64.4806 60.2659 64.6476 60.2661H100.063C100.4 60.2661 100.724 60.4008 100.962 60.6407C101.2 60.8805 101.334 61.2058 101.334 61.5449C101.334 61.8841 101.2 62.2094 100.962 62.4492C100.724 62.689 100.4 62.8238 100.063 62.8238Z" fill="#E6E6E6"/>
<path d="M94.8216 77.85H64.6476C64.4806 77.8502 64.3152 77.8173 64.1609 77.7531C64.0066 77.6889 63.8663 77.5947 63.7482 77.476C63.63 77.3572 63.5363 77.2161 63.4724 77.0609C63.4084 76.9057 63.3755 76.7392 63.3755 76.5712C63.3755 76.4031 63.4084 76.2367 63.4724 76.0815C63.5363 75.9262 63.63 75.7852 63.7482 75.6664C63.8663 75.5476 64.0066 75.4535 64.1609 75.3893C64.3152 75.3251 64.4806 75.2922 64.6476 75.2924H94.8216C95.1586 75.2924 95.4818 75.4271 95.7201 75.6669C95.9585 75.9067 96.0923 76.232 96.0923 76.5712C96.0923 76.9103 95.9585 77.2356 95.7201 77.4755C95.4818 77.7153 95.1586 77.85 94.8216 77.85Z" fill="#E6E6E6"/>
<path d="M100.063 82.1659H64.6476C64.4806 82.1661 64.3152 82.1332 64.1609 82.069C64.0066 82.0048 63.8663 81.9106 63.7482 81.7919C63.63 81.6731 63.5363 81.5321 63.4724 81.3768C63.4084 81.2216 63.3755 81.0552 63.3755 80.8871C63.3755 80.7191 63.4084 80.5526 63.4724 80.3974C63.5363 80.2421 63.63 80.1011 63.7482 79.9823C63.8663 79.8636 64.0066 79.7694 64.1609 79.7052C64.3152 79.641 64.4806 79.6081 64.6476 79.6083H100.063C100.23 79.6081 100.396 79.641 100.55 79.7052C100.704 79.7694 100.845 79.8636 100.963 79.9823C101.081 80.1011 101.175 80.2421 101.239 80.3974C101.303 80.5526 101.335 80.7191 101.335 80.8871C101.335 81.0552 101.303 81.2216 101.239 81.3768C101.175 81.5321 101.081 81.6731 100.963 81.7919C100.845 81.9106 100.704 82.0048 100.55 82.069C100.396 82.1332 100.23 82.1661 100.063 82.1659Z" fill="#E6E6E6"/>
<path d="M57.8887 64.7831H47.2104C47.0488 64.7829 46.894 64.7183 46.7797 64.6033C46.6655 64.4884 46.6013 64.3325 46.6011 64.1699V54.604C46.6013 54.4415 46.6655 54.2856 46.7797 54.1706C46.894 54.0557 47.0488 53.991 47.2104 53.9908H57.8887C58.0502 53.991 58.2051 54.0557 58.3193 54.1706C58.4336 54.2856 58.4978 54.4415 58.498 54.604V64.1699C58.4978 64.3325 58.4336 64.4884 58.3193 64.6033C58.2051 64.7183 58.0502 64.7829 57.8887 64.7831Z" fill="#E6E6E6"/>
<path d="M57.8887 84.1253H47.2104C47.0488 84.1251 46.894 84.0604 46.7797 83.9455C46.6655 83.8305 46.6013 83.6747 46.6011 83.5121V73.9462C46.6013 73.7836 46.6655 73.6278 46.7797 73.5128C46.894 73.3978 47.0488 73.3332 47.2104 73.333H57.8887C58.0502 73.3332 58.2051 73.3978 58.3193 73.5128C58.4336 73.6278 58.4978 73.7836 58.498 73.9462V83.5121C58.4978 83.6747 58.4336 83.8305 58.3193 83.9455C58.2051 84.0604 58.0502 84.1251 57.8887 84.1253Z" fill="#E6E6E6"/>
<path d="M94.8551 36.9761H72.6091C72.2721 36.9761 71.9489 36.8414 71.7106 36.6015C71.4723 36.3617 71.3384 36.0364 71.3384 35.6973C71.3384 35.3581 71.4723 35.0328 71.7106 34.793C71.9489 34.5532 72.2721 34.4185 72.6091 34.4185H94.8551C95.1922 34.4185 95.5154 34.5532 95.7537 34.793C95.992 35.0328 96.1259 35.3581 96.1259 35.6973C96.1259 36.0364 95.992 36.3617 95.7537 36.6015C95.5154 36.8414 95.1922 36.9761 94.8551 36.9761Z" fill="#CCCCCC"/>
<path d="M100.097 41.292H72.6091C72.4422 41.292 72.277 41.2589 72.1228 41.1947C71.9686 41.1304 71.8286 41.0362 71.7106 40.9175C71.5926 40.7987 71.499 40.6577 71.4351 40.5026C71.3712 40.3474 71.3384 40.1811 71.3384 40.0132C71.3384 39.8453 71.3712 39.679 71.4351 39.5238C71.499 39.3687 71.5926 39.2277 71.7106 39.1089C71.8286 38.9902 71.9686 38.896 72.1228 38.8317C72.277 38.7674 72.4422 38.7344 72.6091 38.7344H100.097C100.434 38.7344 100.757 38.8691 100.995 39.1089C101.234 39.3488 101.368 39.674 101.368 40.0132C101.368 40.3524 101.234 40.6776 100.995 40.9175C100.757 41.1573 100.434 41.292 100.097 41.292Z" fill="#CCCCCC"/>
<path d="M67.6856 46.5226H47.1767C47.0151 46.5224 46.8603 46.4577 46.746 46.3428C46.6318 46.2278 46.5676 46.0719 46.5674 45.9094V29.8011C46.5676 29.6385 46.6318 29.4826 46.746 29.3677C46.8603 29.2527 47.0151 29.188 47.1767 29.1879H67.6856C67.8472 29.188 68.002 29.2527 68.1163 29.3677C68.2305 29.4826 68.2948 29.6385 68.2949 29.8011V45.9094C68.2948 46.0719 68.2305 46.2278 68.1163 46.3428C68.002 46.4577 67.8472 46.5224 67.6856 46.5226Z" fill="#2E6EEB"/>
</g>
<defs>
<clipPath id="clip0_641_40">
<rect width="124" height="112" fill="white"/>
</clipPath>
</defs>
</svg>
