<svg width="40" height="40" viewBox="0 0 40 40" fill="none" xmlns="http://www.w3.org/2000/svg">
<path fillRule="evenodd" clipRule="evenodd" d="M34.4 20.3409C34.4 19.2773 34.3045 18.2546 34.1273 17.2728H20V23.075H28.0727C27.725 24.95 26.6682 26.5387 25.0795 27.6023V31.3659H29.9273C32.7636 28.7546 34.4 24.9091 34.4 20.3409Z" fill="#4285F4"/>
<path fillRule="evenodd" clipRule="evenodd" d="M20 35C24.05 35 27.4455 33.6568 29.9273 31.3659L25.0795 27.6022C23.7364 28.5022 22.0182 29.0341 20 29.0341C16.0932 29.0341 12.7864 26.3954 11.6068 22.85H6.59546V26.7363C9.06364 31.6386 14.1364 35 20 35Z" fill="#34A853"/>
<path fillRule="evenodd" clipRule="evenodd" d="M11.6068 22.85C11.3068 21.95 11.1364 20.9887 11.1364 20C11.1364 19.0114 11.3068 18.05 11.6068 17.15V13.2637H6.59545C5.57955 15.2887 5 17.5796 5 20C5 22.4205 5.57955 24.7114 6.59545 26.7364L11.6068 22.85Z" fill="#FBBC05"/>
<path fillRule="evenodd" clipRule="evenodd" d="M20 10.9659C22.2023 10.9659 24.1796 11.7227 25.7341 13.2091L30.0364 8.90682C27.4386 6.48636 24.0432 5 20 5C14.1364 5 9.06364 8.36136 6.59546 13.2636L11.6068 17.15C12.7864 13.6045 16.0932 10.9659 20 10.9659Z" fill="#EA4335"/>
</svg>
