<svg width="15" height="15" viewBox="0 0 15 15" fill="none" xmlns="http://www.w3.org/2000/svg" xmlns:xlink="http://www.w3.org/1999/xlink">
<path d="M1.40625 7.975C1.40625 8.975 2.10812 9.84625 3.09812 9.99188C3.7775 10.0919 4.46375 10.1688 5.15625 10.2225V13.125L7.70375 10.5775C7.87652 10.4058 8.10841 10.3068 8.35187 10.3006C9.54026 10.2677 10.7257 10.1646 11.9019 9.99188C12.8919 9.84625 13.5938 8.97563 13.5938 7.97438V4.21313C13.5938 3.21188 12.8919 2.34125 11.9019 2.19563C10.4443 1.9817 8.97314 1.87454 7.5 1.875C6.005 1.875 4.535 1.98438 3.09812 2.19563C2.10812 2.34125 1.40625 3.2125 1.40625 4.21313V7.97438V7.975Z" stroke="#999999" stroke-linecap="round" stroke-linejoin="round"/>
</svg>
